<?xml version="1.0" standalone="no"?>
<!DOCTYPE svg PUBLIC "-//W3C//DTD SVG 20010904//EN"
 "http://www.w3.org/TR/2001/REC-SVG-20010904/DTD/svg10.dtd">
<svg version="1.0" xmlns="http://www.w3.org/2000/svg"
 width="603.000000pt" height="603.000000pt" viewBox="0 0 603.000000 603.000000"
 preserveAspectRatio="xMidYMid meet">

<g transform="translate(0.000000,603.000000) scale(0.100000,-0.100000)"
fill="#000000" stroke="none">
<path d="M1918 4875 c-342 -58 -618 -283 -748 -610 -62 -156 -61 -130 -58
-1246 l3 -1014 28 -90 c111 -358 364 -600 699 -669 68 -14 212 -16 1188 -16
1214 0 1168 -2 1320 58 267 106 474 350 557 657 l27 100 3 695 c2 382 0 844
-5 1025 -9 313 -11 335 -36 418 -50 168 -148 329 -271 446 -123 117 -232 181
-397 232 l-73 23 -1080 2 c-850 2 -1096 -1 -1157 -11z m1145 -397 c13 -11 17
-33 18 -127 1 -100 -1 -116 -17 -128 -26 -19 -61 -16 -84 7 -17 17 -20 33 -20
118 0 72 4 103 16 120 17 25 60 30 87 10z m-468 -191 c60 -90 66 -116 35 -147
-26 -26 -62 -25 -87 3 -34 36 -103 153 -103 172 0 30 30 55 66 55 31 0 38 -7
89 -83z m989 67 c25 -24 19 -59 -17 -117 -19 -28 -41 -64 -51 -79 -21 -35 -59
-45 -90 -24 -43 28 -42 50 9 131 25 41 53 82 61 90 20 20 68 19 88 -1z m-514
-249 c12 -15 16 -168 4 -187 -12 -19 -55 -28 -77 -17 -33 18 -37 28 -37 111 0
56 4 81 16 92 20 20 78 21 94 1z m-321 -72 c16 -20 40 -56 53 -80 21 -40 22
-45 8 -71 -13 -22 -23 -27 -55 -27 -38 0 -42 3 -82 63 -50 74 -53 102 -17 131
38 30 58 26 93 -16z m624 26 c46 -21 50 -51 15 -116 -41 -78 -56 -93 -91 -93
-37 0 -67 25 -67 56 0 42 83 164 111 164 4 0 19 -5 32 -11z m-986 -221 c80
-39 103 -55 111 -77 12 -34 -8 -76 -39 -84 -22 -6 -204 78 -241 111 -26 22
-23 77 4 96 27 19 35 17 165 -46z m1447 36 c20 -20 21 -68 1 -88 -9 -8 -63
-38 -122 -67 -90 -44 -109 -50 -129 -40 -14 6 -29 22 -36 36 -20 45 2 70 109
124 102 52 151 62 177 35z m-495 -224 c65 -12 95 -34 121 -86 25 -50 25 -87 1
-140 -24 -53 -76 -85 -149 -93 -50 -5 -57 -9 -60 -30 -4 -27 12 -41 46 -41 60
0 122 -74 122 -146 0 -56 -33 -115 -82 -147 l-42 -27 -278 0 c-258 0 -282 1
-317 20 -52 26 -81 75 -81 134 0 56 16 89 64 135 20 19 36 43 36 52 0 10 -20
32 -44 48 -72 50 -94 135 -57 217 24 54 78 93 138 104 70 11 521 12 582 0z
m-1334 -25 l25 -24 0 -472 0 -471 83 -85 c45 -46 114 -118 153 -159 40 -41 79
-74 89 -74 32 0 55 20 55 48 0 22 -27 54 -130 157 -168 168 -170 171 -170 276
0 105 19 142 81 160 37 11 46 11 77 -7 20 -10 46 -36 58 -57 11 -20 119 -139
240 -263 324 -334 335 -358 342 -702 3 -166 1 -226 -8 -237 -10 -13 -56 -15
-274 -15 -190 0 -265 3 -274 12 -7 7 -12 40 -12 79 0 77 -28 179 -62 225 -13
17 -95 106 -183 198 -105 109 -170 186 -190 223 l-30 57 -3 535 c-2 295 0 546
3 559 15 61 86 82 130 37z m2127 14 c46 -25 48 -47 48 -561 0 -266 -4 -510
-10 -542 -17 -103 -47 -149 -217 -325 -87 -90 -171 -183 -186 -207 -36 -55
-57 -132 -57 -215 0 -37 -5 -70 -12 -77 -17 -17 -519 -17 -536 0 -9 9 -12 74
-12 233 0 371 -5 361 442 828 57 59 115 127 130 152 48 79 144 84 189 11 15
-25 19 -50 19 -126 l-1 -95 -149 -152 c-90 -91 -150 -160 -150 -172 0 -26 26
-51 53 -51 15 0 69 47 169 148 80 81 151 158 158 170 8 17 11 120 10 375 -3
585 -3 573 22 597 24 22 58 26 90 9z m-998 -805 c12 -30 6 -174 -8 -208 -30
-72 -119 -90 -178 -37 -33 29 -33 31 -36 130 -2 56 -1 108 2 116 8 23 211 22
220 -1z"/>
<path d="M2994 3553 c-13 -16 -60 -77 -104 -138 -59 -80 -80 -117 -78 -135 3
-24 5 -25 91 -28 48 -1 87 -5 87 -8 0 -2 -19 -32 -42 -65 -39 -59 -41 -63 -27
-88 18 -33 61 -39 86 -13 10 10 57 68 106 130 119 152 117 169 -27 174 l-87 3
38 55 c55 78 57 87 28 116 -31 31 -42 30 -71 -3z"/>
</g>
</svg>
