<?xml version="1.0" standalone="no"?>
<!DOCTYPE svg PUBLIC "-//W3C//DTD SVG 20010904//EN"
 "http://www.w3.org/TR/2001/REC-SVG-20010904/DTD/svg10.dtd">
<svg version="1.0" xmlns="http://www.w3.org/2000/svg"
 width="603.000000pt" height="603.000000pt" viewBox="0 0 603.000000 603.000000"
 preserveAspectRatio="xMidYMid meet">

<g transform="translate(0.000000,603.000000) scale(0.100000,-0.100000)"
fill="#000000" stroke="none">
<path d="M1218 5475 c-60 -16 -124 -52 -318 -179 -213 -138 -253 -169 -294
-229 -73 -108 -114 -307 -84 -407 l14 -45 7 88 c12 146 67 265 159 341 56 46
592 394 641 416 29 13 34 19 22 24 -26 10 -95 6 -147 -9z"/>
<path d="M1400 5421 c-25 -9 -133 -75 -240 -146 -107 -71 -238 -156 -290 -190
-107 -70 -150 -110 -192 -175 -62 -97 -85 -246 -52 -329 13 -34 74 -91 97 -91
4 0 7 21 7 48 0 68 34 223 63 286 34 73 88 129 188 197 206 139 512 339 549
360 22 12 40 26 40 30 0 11 -59 29 -94 29 -17 -1 -51 -9 -76 -19z"/>
<path d="M1589 5336 c-53 -28 -554 -359 -622 -410 -66 -50 -103 -106 -134
-200 -22 -67 -27 -100 -27 -193 -1 -82 3 -115 13 -125 11 -11 12 -5 7 35 -4
26 -4 68 0 95 8 58 55 106 195 201 51 35 211 143 354 239 143 96 280 189 305
207 25 18 53 35 64 39 15 5 18 13 13 49 -11 82 -82 109 -168 63z"/>
<path d="M3114 5229 c19 -96 18 -108 -14 -214 -18 -58 -30 -109 -27 -111 9
-10 56 69 77 129 33 93 22 194 -23 218 -19 11 -20 9 -13 -22z"/>
<path d="M2785 5204 c-114 -19 -218 -42 -242 -53 -77 -37 -102 -112 -61 -190
l23 -45 60 0 c53 -1 69 -6 143 -50 l83 -49 109 34 109 33 30 97 c42 133 45
150 31 208 -12 50 -13 51 -48 50 -21 -1 -127 -16 -237 -35z"/>
<path d="M3204 5199 c14 -68 14 -92 2 -138 -15 -59 -61 -129 -93 -144 -13 -6
-23 -13 -23 -17 0 -4 37 -27 83 -50 45 -24 118 -63 161 -88 44 -25 81 -42 83
-36 2 5 37 70 77 144 55 100 71 138 62 146 -6 7 -69 45 -141 85 -71 40 -149
83 -173 97 l-43 24 5 -23z"/>
<path d="M1684 5112 c-29 -20 -129 -89 -223 -152 -158 -106 -169 -115 -155
-131 12 -14 13 -22 4 -38 -13 -25 -42 -27 -60 -6 -7 9 -20 13 -28 10 -21 -8
-251 -163 -299 -202 -41 -33 -43 -37 -43 -89 0 -80 107 -601 133 -647 20 -35
67 -72 191 -147 40 -24 55 -18 56 20 0 9 11 32 25 52 24 35 82 70 186 111 l36
15 -15 65 -15 65 -56 23 c-70 29 -159 117 -224 220 -49 79 -53 113 -14 107 12
-2 35 -29 62 -73 122 -202 255 -268 417 -206 32 12 60 26 63 31 3 5 -2 24 -11
41 -22 44 -35 148 -25 203 19 102 107 173 203 164 72 -7 124 -48 173 -136 22
-39 45 -70 50 -67 6 2 63 25 127 52 l117 48 22 60 c12 33 31 77 41 98 19 38
19 39 -1 81 -32 65 -24 124 21 173 l20 22 -26 52 c-32 65 -34 129 -6 182 l20
37 -357 0 -358 -1 -51 -37z m-274 -337 c20 -24 3 -57 -28 -53 -30 3 -41 30
-22 53 16 19 34 19 50 0z m103 -67 c17 -26 1 -50 -30 -46 -34 4 -43 36 -17 55
21 15 34 13 47 -9z m112 -58 c14 -44 -44 -69 -65 -29 -9 15 -8 24 1 35 18 21
57 18 64 -6z m109 -56 c9 -22 -11 -44 -41 -44 -25 0 -39 20 -29 45 8 21 62 20
70 -1z"/>
<path d="M3530 4825 l-73 -145 78 -85 c91 -101 149 -138 212 -138 52 0 90 24
116 74 24 46 15 101 -28 164 -51 75 -149 198 -161 202 -6 2 -19 -15 -29 -37
-18 -41 -95 -120 -116 -120 -7 0 -4 11 7 28 10 15 37 60 61 101 32 56 40 78
32 88 -7 7 -15 13 -19 13 -4 0 -40 -65 -80 -145z"/>
<path d="M2513 4850 c-72 -43 -80 -124 -17 -179 35 -31 44 -34 99 -32 29 2 29
1 11 -14 -11 -8 -28 -15 -38 -15 -17 0 -25 -13 -42 -66 -5 -18 -2 -22 21 -27
16 -3 93 -47 173 -96 79 -50 148 -91 153 -91 4 0 10 8 14 18 28 84 71 157 120
203 30 28 53 52 51 54 -2 1 -70 43 -153 92 -303 182 -329 192 -392 153z"/>
<path d="M3043 4759 c-35 -23 -63 -44 -63 -48 0 -9 55 -41 70 -41 13 0 150 87
150 95 0 8 -66 35 -82 34 -7 0 -41 -18 -75 -40z"/>
<path d="M2461 4568 c-36 -79 -45 -108 -34 -108 22 0 42 30 62 89 24 74 25 81
10 81 -5 0 -23 -28 -38 -62z"/>
<path d="M3045 4528 c-54 -47 -105 -143 -105 -196 0 -48 18 -36 45 31 30 73
58 112 105 146 30 22 36 31 28 44 -13 24 -20 22 -73 -25z"/>
<path d="M3910 4495 c-16 -47 -47 -72 -272 -214 -195 -124 -197 -125 -203
-165 -17 -101 -20 -103 -498 -411 -135 -87 -139 -90 -133 -119 4 -16 8 -31 10
-34 5 -4 27 10 365 232 140 93 291 198 336 234 46 37 161 116 256 175 l174
108 3 -37 c2 -20 1 -42 -2 -50 -5 -13 -254 -182 -498 -338 -76 -48 -138 -91
-138 -96 0 -16 12 -40 21 -40 11 0 271 164 461 292 81 54 150 98 153 98 3 0 5
-22 5 -50 0 -49 -1 -50 -52 -84 -54 -34 -342 -213 -696 -431 -167 -103 -193
-122 -188 -139 3 -12 6 -26 6 -33 0 -6 92 44 205 113 196 118 655 401 703 432
22 14 22 14 22 -32 l0 -47 -103 -67 c-57 -37 -262 -164 -455 -282 -328 -201
-351 -217 -352 -244 0 -23 3 -27 18 -21 18 7 444 263 635 382 66 41 121 72
123 70 3 -3 7 -20 10 -39 7 -41 43 -16 -471 -326 -242 -147 -311 -193 -316
-212 -6 -23 -7 -22 -8 9 -1 22 -5 32 -13 28 -19 -7 -732 -437 -742 -447 -11
-11 2 -80 16 -80 27 0 750 429 742 441 -3 5 1 6 8 4 12 -5 303 170 688 413 79
50 145 90 146 89 1 -1 4 -18 8 -38 l6 -37 -227 -144 c-126 -80 -311 -196 -411
-258 -101 -62 -186 -118 -188 -125 -3 -6 -1 -21 3 -33 8 -21 15 -18 158 69
146 89 388 240 609 380 60 38 113 69 118 69 4 0 8 -52 8 -115 0 -101 -2 -116
-17 -122 -10 -3 -46 -22 -80 -42 l-63 -36 0 -302 c0 -166 -3 -309 -6 -318 -6
-14 -53 -45 -69 -45 -3 0 -5 133 -5 296 l0 295 -47 -26 c-27 -14 -59 -34 -72
-44 l-23 -18 1 -289 c0 -159 -3 -294 -7 -299 -8 -13 -67 -55 -76 -55 -3 0 -6
106 -6 235 0 129 -3 235 -8 235 -4 0 -18 -7 -30 -16 -22 -15 -22 -18 -22 -256
0 -201 -3 -244 -15 -258 -14 -15 -13 -19 4 -34 19 -17 23 -16 98 30 43 26 170
104 283 172 113 69 224 137 248 151 41 26 58 64 30 73 -8 3 -12 200 -14 789
-2 821 -3 835 -46 936 -19 43 -71 122 -85 127 -7 3 -17 -10 -23 -29z"/>
<path d="M1836 4485 c-22 -8 -51 -25 -65 -40 -25 -24 -26 -31 -25 -125 1 -98
2 -102 47 -192 25 -51 71 -140 102 -198 31 -58 66 -123 77 -145 l21 -39 20 54
c28 76 89 132 166 154 34 9 61 19 61 22 0 11 -215 412 -241 450 -18 27 -43 47
-69 58 -48 19 -44 19 -94 1z"/>
<path d="M3113 4466 c-22 -20 -57 -66 -77 -106 -29 -54 -45 -74 -67 -82 -16
-5 -29 -13 -29 -17 0 -4 41 -51 90 -103 101 -107 150 -138 224 -138 42 0 53 5
86 38 52 52 60 103 27 174 -25 53 -190 268 -205 268 -5 0 -27 -16 -49 -34z"/>
<path d="M2465 4402 c-49 -33 -136 -89 -192 -125 l-103 -66 17 -36 c9 -19 20
-35 24 -35 14 0 419 261 419 270 0 6 -64 50 -73 50 -1 0 -42 -26 -92 -58z"/>
<path d="M1740 3973 c-30 -19 -127 -70 -215 -113 -88 -43 -170 -88 -181 -101
-48 -53 -57 -106 -27 -162 l16 -32 12 59 c12 61 32 86 68 86 11 0 62 18 113
40 52 22 100 40 107 40 8 0 22 18 32 39 19 44 61 87 117 120 27 16 35 26 31
41 -7 25 -7 25 -73 -17z"/>
<path d="M2185 3911 c-58 -26 -105 -69 -126 -116 -32 -71 -19 -120 13 -51 38
79 124 145 191 146 29 0 34 9 15 28 -17 17 -46 15 -93 -7z"/>
<path d="M1799 3891 c-53 -33 -99 -88 -99 -119 0 -12 34 -59 79 -111 91 -104
130 -158 157 -221 18 -43 19 -79 22 -680 2 -665 1 -680 -40 -688 -10 -2 -90
41 -180 96 -90 54 -219 132 -288 172 -69 41 -137 86 -152 101 -33 32 -36 67
-9 101 11 14 157 108 325 209 293 176 305 185 305 214 -1 76 12 81 -369 -147
-376 -225 -433 -268 -472 -355 -27 -60 -28 -155 -4 -203 10 -19 32 -50 50 -68
17 -19 198 -133 401 -254 1832 -1093 2052 -1223 2120 -1254 104 -47 271 -49
383 -5 29 11 80 38 114 59 35 21 185 113 333 204 149 91 389 239 535 328 146
90 325 199 399 244 173 105 233 163 261 252 11 36 20 80 20 97 0 54 -30 140
-66 190 -53 73 -68 82 -779 501 -49 30 -139 83 -200 119 -112 66 -170 97 -180
97 -3 0 -5 -19 -5 -43 l0 -43 188 -109 c427 -248 542 -330 542 -388 0 -32 13
-23 -305 -214 -343 -205 -325 -194 -325 -202 0 -17 -64 -70 -91 -76 -47 -11
-238 -116 -524 -290 -385 -234 -391 -238 -446 -243 -65 -6 3 -43 -1054 586
-277 165 -321 201 -374 312 l-26 55 -6 635 c-4 447 -9 648 -18 679 -30 109
-112 237 -199 311 -59 49 -58 57 7 105 45 34 46 34 28 58 -11 16 -16 15 -58
-12z m3504 -2058 c103 -62 108 -66 105 -96 -3 -28 -15 -38 -128 -106 -159 -96
-178 -98 -295 -27 -178 108 -180 116 -55 193 140 87 200 115 235 107 16 -3 79
-35 138 -71z m-734 -446 c168 -106 170 -99 -85 -252 -110 -66 -239 -144 -286
-173 -117 -71 -148 -83 -187 -72 -47 13 -250 143 -257 164 -9 26 12 43 166
137 334 203 417 253 440 266 41 23 86 8 209 -70z"/>
<path d="M4446 1343 c-3 -10 -8 -35 -12 -55 -5 -31 -3 -38 9 -38 20 0 23 5 31
63 6 38 4 47 -8 47 -8 0 -17 -8 -20 -17z"/>
<path d="M4320 1246 l0 -46 -42 5 c-24 3 -55 8 -70 10 -15 2 -30 0 -33 -5 -8
-13 61 -30 123 -30 l53 0 -3 52 c-4 67 -28 79 -28 14z"/>
<path d="M4110 1158 c0 -16 51 -68 67 -68 21 0 15 14 -20 48 -35 34 -47 39
-47 20z"/>
<path d="M4063 1085 l6 -35 -75 0 c-43 0 -74 -4 -74 -10 0 -6 26 -10 59 -10
32 0 73 -3 90 -6 26 -6 31 -4 31 13 0 30 -21 83 -32 83 -7 0 -8 -14 -5 -35z"/>
<path d="M2220 3833 c-38 -20 -64 -44 -95 -88 -25 -37 -50 -61 -63 -63 -12 -2
-22 -6 -22 -8 0 -3 14 -26 32 -52 105 -155 160 -202 239 -202 107 0 172 96
140 206 -5 17 -37 77 -72 133 -72 115 -76 117 -159 74z"/>
<path d="M4801 3836 c-18 -21 32 -54 54 -36 21 17 19 25 -10 38 -32 15 -30 15
-44 -2z"/>
<path d="M4895 3780 c-8 -14 13 -40 32 -40 7 0 16 7 20 16 10 26 -38 47 -52
24z"/>
<path d="M1570 3714 c-36 -18 -83 -36 -105 -39 -76 -12 -75 -11 -75 -75 0 -72
4 -77 150 -185 137 -100 169 -117 235 -123 40 -3 57 1 85 20 20 13 36 34 38
47 8 54 -46 145 -157 266 -25 28 -60 66 -76 86 l-30 36 -65 -33z"/>
<path d="M4475 3738 c-75 -26 -113 -102 -81 -162 16 -30 16 -34 -6 -81 l-23
-50 0 -785 c0 -778 0 -785 20 -785 20 0 20 8 25 780 5 734 6 783 24 823 15 35
22 41 39 36 37 -12 113 -7 144 10 74 38 96 118 48 170 -47 51 -122 68 -190 44z
m133 -64 c32 -20 30 -67 -4 -93 -56 -44 -164 -14 -164 45 0 62 100 90 168 48z"/>
<path d="M4975 3730 c-8 -13 13 -40 30 -40 7 0 18 6 24 14 10 12 8 17 -8 25
-25 14 -38 14 -46 1z"/>
<path d="M5061 3676 c-18 -21 23 -43 46 -25 13 12 13 14 -3 26 -23 17 -29 16
-43 -1z"/>
<path d="M5144 3625 c-8 -19 3 -35 26 -35 26 0 33 28 10 40 -25 13 -30 13 -36
-5z"/>
<path d="M5222 3578 c-15 -15 3 -38 29 -38 27 0 35 21 14 37 -23 16 -28 16
-43 1z"/>
<path d="M5303 3524 c-6 -16 19 -44 39 -44 19 0 21 33 3 46 -25 18 -34 18 -42
-2z"/>
<path d="M2591 3497 c-19 -12 -104 -65 -190 -117 -154 -94 -156 -95 -159 -133
l-3 -38 34 18 c18 10 111 65 205 123 169 103 181 115 166 154 -8 21 -12 20
-53 -7z"/>
<path d="M2555 3190 c-240 -147 -260 -162 -263 -190 -2 -16 1 -30 7 -30 8 0
79 42 448 267 40 24 75 48 77 52 3 4 2 20 -2 34 -7 26 -8 26 -267 -133z"/>
<path d="M4863 3243 c-7 -2 -13 -11 -13 -18 0 -18 -94 -77 -116 -73 -25 4 -50
-47 -34 -67 15 -18 -7 -95 -27 -95 -22 0 -17 -61 7 -67 27 -7 52 -48 45 -76
-7 -26 14 -41 73 -52 26 -5 32 -11 32 -31 0 -17 8 -27 27 -35 26 -10 36 -4 46
26 4 10 34 -2 69 -27 14 -10 20 -9 35 4 22 20 141 61 158 54 7 -2 22 2 34 11
17 11 21 22 17 41 -7 32 22 72 52 72 21 0 32 18 32 51 0 12 -7 19 -19 19 -15
0 -21 10 -26 40 -4 25 -3 46 4 54 8 9 8 22 0 45 -9 25 -15 30 -30 26 -24 -8
-100 50 -93 69 3 8 -8 18 -26 26 -26 11 -33 11 -40 0 -10 -15 -129 -15 -144 1
-10 9 -42 11 -63 2z m222 -116 c21 -12 50 -38 63 -57 20 -29 23 -44 19 -90 -4
-49 -8 -58 -46 -91 -140 -124 -385 -22 -341 142 13 48 78 105 134 118 55 13
122 4 171 -22z"/>
<path d="M4935 3113 c-94 -23 -137 -93 -103 -167 15 -33 46 -53 103 -66 62
-14 119 2 163 46 31 31 34 39 29 75 -6 49 -28 76 -82 100 -39 18 -70 21 -110
12z m109 -56 c18 -13 18 -14 2 -20 -10 -4 -26 -2 -36 3 -10 6 -31 10 -45 10
-43 0 -24 -23 30 -36 56 -15 78 -33 69 -58 -9 -22 -44 -36 -94 -36 -21 0 -40
-5 -42 -12 -4 -10 -58 35 -58 48 0 3 30 4 68 2 81 -4 92 11 23 32 -64 19 -77
31 -62 59 10 18 21 21 69 21 33 0 66 -6 76 -13z"/>
<path d="M4120 2932 l0 -47 90 -53 c49 -28 92 -52 95 -52 3 0 5 21 5 48 l0 47
-90 53 c-48 28 -91 52 -94 52 -3 0 -6 -21 -6 -48z"/>
<path d="M3145 2854 c-60 -37 -263 -154 -450 -262 -430 -247 -406 -231 -403
-262 2 -14 9 -24 16 -22 12 2 654 369 860 490 88 52 97 61 100 90 2 18 0 32
-5 32 -4 0 -57 -30 -118 -66z"/>
<path d="M2775 2464 c-209 -124 -397 -235 -417 -247 -38 -22 -47 -44 -27 -64
8 -8 24 -4 58 16 309 183 778 460 788 465 4 3 -10 56 -16 56 -3 0 -177 -102
-386 -226z"/>
<path d="M2398 2607 c-102 -59 -107 -64 -108 -95 l0 -34 58 32 c173 98 182
104 182 133 0 15 -5 27 -12 27 -7 0 -61 -28 -120 -63z"/>
<path d="M3905 2430 c-115 -71 -245 -151 -288 -178 l-79 -49 26 -16 c25 -17
27 -16 308 154 156 94 289 176 296 181 10 8 8 13 -5 24 -10 7 -25 13 -33 13
-8 0 -109 -58 -225 -129z"/>
<path d="M2920 2402 c-91 -53 -240 -142 -332 -197 l-168 -99 28 -29 c15 -15
34 -26 42 -24 16 4 599 353 614 367 10 9 -1 80 -12 80 -4 0 -81 -44 -172 -98z"/>
<path d="M4035 2262 c-143 -86 -270 -164 -283 -173 -22 -16 -22 -16 -2 -34 19
-17 27 -14 295 146 252 151 274 166 275 192 0 15 -5 27 -12 27 -7 -1 -130 -72
-273 -158z"/>
<path d="M4460 2325 l0 -35 25 16 c27 17 25 28 -6 44 -17 10 -19 7 -19 -25z"/>
<path d="M2903 2197 c-139 -84 -265 -161 -280 -173 l-28 -21 23 -12 c18 -9 28
-8 54 5 57 30 502 296 517 310 12 11 12 16 1 28 -7 9 -18 16 -24 16 -6 -1
-124 -69 -263 -153z"/>
<path d="M4180 2200 c-74 -45 -198 -118 -275 -162 -259 -148 -675 -400 -675
-408 0 -4 13 -13 29 -20 36 -14 20 -23 366 185 459 275 686 417 692 430 2 8 3
23 1 35 -3 19 -15 14 -138 -60z"/>
<path d="M3045 2134 c-331 -198 -325 -193 -285 -214 16 -8 27 -6 57 14 21 13
135 81 253 151 118 70 216 129 218 130 6 5 -18 45 -26 45 -4 0 -101 -57 -217
-126z"/>
<path d="M4505 2237 c-32 -18 -41 -29 -43 -55 l-3 -33 38 20 c66 34 74 43 60
68 l-12 22 -40 -22z"/>
<path d="M1090 2135 c0 -4 14 -26 30 -51 36 -51 84 -85 315 -221 94 -56 260
-155 370 -221 110 -65 290 -172 400 -237 110 -65 204 -121 208 -125 4 -4 -36
-33 -90 -65 -54 -33 -125 -76 -158 -97 -58 -38 -62 -39 -121 -33 -50 6 -70 3
-110 -14 -167 -72 -63 -258 121 -219 l45 10 172 -108 c95 -59 174 -108 176
-110 2 -1 -6 -17 -17 -35 -26 -42 -26 -62 -3 -101 51 -89 230 -91 283 -4 10
17 19 47 19 66 0 35 1 36 203 158 l203 122 230 -135 c126 -74 253 -144 282
-155 120 -45 250 -49 376 -10 69 22 91 35 601 348 193 118 472 289 620 381
286 175 336 213 375 283 l24 43 -35 -27 c-19 -15 -72 -50 -119 -79 -47 -29
-211 -130 -365 -224 -1122 -688 -1046 -643 -1134 -669 -71 -21 -220 -21 -292
0 -57 17 -139 59 -297 153 -54 32 -180 106 -282 166 -102 60 -329 195 -505
300 -407 244 -549 328 -1040 620 -220 130 -419 250 -442 267 -24 16 -43 26
-43 23z m1647 -1049 c142 -84 277 -164 300 -177 24 -13 43 -26 43 -29 0 -3
-88 -59 -195 -123 l-194 -118 -28 18 c-20 13 -47 18 -103 18 -74 0 -76 1 -165
57 -49 31 -127 80 -173 108 l-82 51 15 29 c19 37 19 57 0 94 -13 24 -13 31 -3
37 7 4 78 48 158 98 80 49 151 90 157 90 7 1 128 -68 270 -153z m-682 -60 c43
-18 62 -54 45 -85 -23 -44 -118 -56 -164 -20 -46 36 -27 89 40 109 40 12 41
12 79 -4z m564 -407 c56 -20 68 -74 25 -108 -50 -40 -157 -18 -170 34 -7 30 0
41 40 66 36 22 60 24 105 8z"/>
<path d="M3078 2007 c-119 -73 -219 -135 -222 -138 -3 -3 5 -12 19 -19 22 -12
30 -11 68 10 63 35 371 221 379 229 11 9 -2 51 -16 50 -6 0 -109 -60 -228
-132z"/>
<path d="M4508 2101 c-42 -23 -48 -30 -48 -59 l0 -34 53 31 c33 19 53 38 55
52 6 35 -10 38 -60 10z"/>
<path d="M4095 1989 c-364 -220 -445 -271 -445 -280 0 -4 9 -13 21 -19 18 -10
59 12 327 173 290 174 307 186 310 216 2 17 0 31 -5 31 -5 0 -98 -54 -208
-121z"/>
<path d="M3180 1919 c-102 -61 -187 -113 -189 -115 -7 -6 32 -33 48 -34 10 0
326 181 359 205 5 4 -18 55 -25 55 -5 0 -91 -50 -193 -111z"/>
<path d="M3975 1774 c-104 -63 -194 -119 -198 -123 -4 -4 4 -16 19 -25 26 -18
26 -18 138 50 235 143 246 151 246 184 0 16 -3 30 -7 30 -5 0 -93 -52 -198
-116z"/>
<path d="M4236 1864 c-13 -33 -6 -92 14 -116 64 -82 230 -32 230 69 0 48 -15
75 -24 45 -26 -79 -166 -80 -191 -2 -8 24 -21 26 -29 4z"/>
<path d="M760 1855 c-9 -11 -6 -17 13 -30 23 -15 57 -12 57 6 0 5 -13 15 -29
23 -25 13 -31 13 -41 1z"/>
<path d="M851 1796 c-10 -12 -7 -18 13 -31 39 -26 66 3 29 31 -23 17 -28 17
-42 0z"/>
<path d="M934 1738 c-4 -6 1 -17 11 -25 22 -15 25 -16 44 -4 12 8 12 12 2 25
-16 19 -47 21 -57 4z"/>
<path d="M1023 1685 c-9 -24 26 -46 49 -31 18 11 18 12 -3 29 -26 21 -38 22
-46 2z"/>
<path d="M1112 1624 c5 -25 35 -41 49 -27 9 9 9 16 -1 28 -17 21 -52 20 -48
-1z"/>
<path d="M1197 1583 c-24 -24 22 -64 49 -42 20 16 18 24 -11 37 -30 14 -30 14
-38 5z"/>
<path d="M1446 1569 c-66 -16 -153 -68 -182 -111 -38 -54 -44 -129 -16 -185
84 -164 391 -202 545 -66 87 76 97 186 25 269 -73 83 -237 124 -372 93z m124
-93 c0 -10 13 -16 38 -18 33 -3 37 -6 37 -30 1 -33 -22 -37 -60 -12 -25 16
-25 16 -25 -15 0 -27 4 -32 29 -37 37 -8 71 -38 71 -64 0 -22 -36 -50 -63 -50
-10 0 -21 -9 -24 -20 -6 -23 -19 -26 -30 -6 -4 7 -26 19 -48 26 -41 13 -75 36
-75 52 0 13 43 9 64 -7 11 -8 28 -15 39 -15 14 0 18 6 15 27 -2 20 -11 29 -43
40 -38 13 -65 36 -65 55 0 19 51 58 75 58 16 0 25 6 25 15 0 8 9 15 20 15 11
0 20 -6 20 -14z"/>
<path d="M1498 1423 c-26 -7 -22 -28 7 -41 35 -16 35 -16 35 18 0 30 -6 33
-42 23z"/>
<path d="M1560 1319 c0 -24 17 -42 34 -36 17 7 23 37 7 37 -5 0 -16 3 -25 6
-10 4 -16 1 -16 -7z"/>
<path d="M1865 1213 c-4 -13 6 -29 37 -58 42 -39 43 -39 46 -16 3 16 -7 34
-29 57 -38 39 -44 41 -54 17z"/>
</g>
</svg>
