<?xml version="1.0" standalone="no"?>
<!DOCTYPE svg PUBLIC "-//W3C//DTD SVG 20010904//EN"
 "http://www.w3.org/TR/2001/REC-SVG-20010904/DTD/svg10.dtd">
<svg version="1.0" xmlns="http://www.w3.org/2000/svg"
 width="603.000000pt" height="603.000000pt" viewBox="0 0 603.000000 603.000000"
 preserveAspectRatio="xMidYMid meet">

<g transform="translate(0.000000,603.000000) scale(0.100000,-0.100000)"
fill="#000000" stroke="none">
<path d="M1545 5359 c-435 -64 -756 -363 -825 -769 -8 -46 -10 -535 -8 -1650
l3 -1585 22 -69 c103 -320 328 -534 661 -629 l77 -22 1528 -3 c1475 -2 1530
-2 1622 17 100 20 220 68 312 123 137 82 300 275 356 424 67 176 62 32 62
1789 l0 1590 -22 83 c-92 346 -334 578 -712 685 l-76 21 -1470 2 c-808 1
-1497 -2 -1530 -7z m1620 -294 c82 -22 139 -56 220 -132 39 -36 95 -77 125
-92 l55 -26 360 -6 c381 -7 416 -11 530 -61 174 -77 316 -237 362 -409 15 -58
17 -152 17 -1029 l1 -965 -22 -71 c-43 -135 -131 -239 -253 -298 l-65 -31
-225 -5 c-284 -6 -289 -8 -384 -143 -99 -141 -429 -595 -489 -674 -21 -29 -56
-68 -78 -87 -153 -139 -405 -135 -549 8 -23 22 -108 131 -188 241 -80 110
-182 250 -226 311 -45 60 -110 151 -146 201 -98 138 -95 137 -375 144 -131 3
-246 11 -267 18 -58 18 -156 89 -200 145 -53 66 -95 158 -108 237 -6 41 -10
401 -10 989 0 785 3 935 15 988 54 231 242 409 495 473 26 6 197 14 410 18
429 8 412 4 540 126 44 42 101 86 127 97 107 48 224 60 328 33z m-1718 -3590
c65 -27 93 -70 93 -142 0 -182 -252 -211 -300 -34 -18 67 17 142 82 174 42 21
79 21 125 2z m429 -4 c145 -66 95 -291 -65 -291 -163 0 -215 221 -69 293 43
22 84 21 134 -2z"/>
<path d="M2985 4845 c-25 -24 -25 -26 -25 -208 0 -178 1 -184 23 -204 12 -11
32 -24 44 -27 30 -10 87 19 102 50 7 15 11 88 11 190 l0 166 -29 29 c-38 38
-91 40 -126 4z"/>
<path d="M1976 4405 c-26 -24 -35 -71 -20 -110 8 -20 273 -221 310 -235 57
-22 133 46 118 105 -8 33 -42 64 -193 174 -137 102 -167 111 -215 66z"/>
<path d="M3894 4334 c-71 -53 -139 -105 -151 -116 -42 -39 -39 -111 6 -145 30
-23 83 -15 133 20 138 96 248 185 258 209 26 59 -20 128 -85 128 -25 0 -61
-21 -161 -96z"/>
<path d="M2895 4266 c-270 -62 -480 -260 -567 -536 -20 -65 -23 -95 -22 -225
0 -143 2 -154 33 -248 36 -106 74 -174 176 -318 111 -157 149 -254 161 -411
l7 -87 -33 -37 c-27 -31 -31 -42 -26 -72 3 -20 15 -45 26 -56 20 -20 33 -21
373 -24 228 -2 365 1 388 7 66 20 83 108 29 153 -16 13 -20 28 -20 75 0 154
45 281 154 441 171 248 226 389 226 583 0 333 -212 629 -525 735 -98 33 -281
43 -380 20z m279 -181 c300 -78 496 -394 432 -694 -21 -101 -62 -183 -155
-315 -146 -206 -197 -337 -208 -538 l-6 -108 -187 0 -187 0 -6 113 c-4 61 -14
139 -22 172 -26 96 -96 231 -184 354 -127 179 -171 290 -171 438 0 99 15 164
60 258 79 164 210 276 373 320 70 18 189 18 261 0z"/>
<path d="M3013 3884 c-20 -10 -37 -30 -46 -52 -8 -21 -54 -116 -101 -213 -51
-104 -86 -189 -86 -207 0 -18 10 -43 24 -59 24 -27 27 -28 145 -32 67 -2 121
-4 121 -5 0 -1 -27 -61 -60 -132 -33 -71 -60 -141 -60 -156 0 -35 37 -77 75
-84 22 -4 39 1 63 18 28 19 50 58 128 231 52 114 94 218 94 232 0 13 -11 37
-24 52 -24 27 -28 28 -145 33 l-122 5 66 134 c36 74 65 143 65 153 0 35 -29
76 -61 87 -40 14 -37 14 -76 -5z"/>
<path d="M1879 3652 l-206 -2 -24 -26 c-34 -36 -31 -99 5 -131 26 -22 32 -23
237 -23 213 0 239 4 266 39 17 22 16 82 -2 108 -24 34 -58 38 -276 35z"/>
<path d="M3955 3625 c-17 -16 -25 -35 -25 -59 0 -89 19 -96 275 -96 l207 0 29
29 c38 38 40 91 4 126 l-24 25 -221 0 -221 0 -24 -25z"/>
<path d="M2099 2992 c-230 -165 -257 -195 -235 -262 23 -70 88 -77 172 -19
104 73 219 161 237 181 26 31 23 93 -8 123 -39 40 -87 34 -166 -23z"/>
<path d="M3837 3020 c-31 -25 -43 -72 -27 -108 12 -29 253 -217 300 -235 45
-17 92 2 113 44 31 64 14 87 -152 210 -158 118 -185 128 -234 89z"/>
<path d="M2670 2112 c-77 -38 -59 -145 28 -163 43 -9 715 3 734 13 10 5 25 22
33 39 13 25 14 37 4 66 -20 61 -34 63 -421 63 -307 0 -347 -2 -378 -18z"/>
<path d="M2670 1807 c-32 -16 -54 -61 -46 -93 7 -26 35 -59 56 -66 8 -2 16
-32 21 -72 15 -122 87 -223 197 -274 49 -23 70 -27 152 -27 83 0 102 3 151 28
67 32 142 109 171 173 11 25 22 71 25 102 5 47 12 62 40 88 49 47 46 112 -8
139 -38 20 -720 22 -759 2z m545 -176 c12 -21 -15 -95 -46 -127 -57 -59 -143
-68 -216 -23 -38 24 -72 85 -73 132 l0 27 164 0 c92 0 167 -4 171 -9z"/>
</g>
</svg>
