<?xml version="1.0" standalone="no"?>
<!DOCTYPE svg PUBLIC "-//W3C//DTD SVG 20010904//EN"
 "http://www.w3.org/TR/2001/REC-SVG-20010904/DTD/svg10.dtd">
<svg version="1.0" xmlns="http://www.w3.org/2000/svg"
 width="603.000000pt" height="603.000000pt" viewBox="0 0 603.000000 603.000000"
 preserveAspectRatio="xMidYMid meet">

<g transform="translate(0.000000,603.000000) scale(0.100000,-0.100000)"
fill="#000000" stroke="none">
<path d="M2200 5019 c-35 -14 -78 -57 -103 -104 -20 -37 -22 -59 -27 -275 l-5
-235 -165 -6 c-189 -6 -243 -21 -330 -90 -109 -86 -151 -171 -158 -321 l-5
-108 117 0 116 0 0 33 c0 61 27 130 67 169 57 56 101 70 235 76 l117 5 6 -29
c12 -54 14 -57 38 -50 12 3 32 6 45 6 l22 0 0 250 0 250 55 0 55 0 0 -720 0
-720 -33 0 c-22 0 -41 8 -55 23 -22 23 -22 29 -22 325 l0 302 -68 0 c-135 0
-225 -53 -251 -147 -7 -23 -11 -154 -11 -325 l0 -288 1190 0 1190 0 0 281 c0
324 -4 353 -64 414 -33 34 -53 45 -98 55 l-58 13 0 179 0 178 355 0 c195 0
355 3 355 8 0 22 -64 114 -97 139 -99 79 -165 93 -418 93 l-193 0 -4 208 c-3
185 -5 212 -24 253 -26 55 -79 111 -137 141 l-42 23 -785 2 c-508 1 -794 -2
-810 -8z m1609 -122 c27 -18 50 -44 62 -70 18 -40 19 -78 19 -833 0 -786 0
-791 -21 -818 -17 -21 -29 -26 -65 -26 l-44 0 0 634 c0 691 3 661 -57 654
l-28 -3 -3 -642 -2 -643 -645 0 -645 0 0 848 c0 809 -1 849 -19 884 -10 21
-16 40 -13 43 3 3 324 4 712 3 l706 -3 43 -28z"/>
<path d="M2542 4764 c-12 -8 -22 -26 -22 -39 0 -49 27 -55 242 -55 108 0 208
4 222 10 37 14 46 58 16 82 -20 16 -43 18 -229 18 -171 0 -210 -3 -229 -16z"/>
<path d="M2538 4509 c-25 -14 -24 -65 1 -79 12 -6 127 -10 305 -10 245 0 287
2 300 16 9 8 16 24 16 34 0 10 -7 26 -16 34 -13 14 -55 16 -302 16 -176 0
-294 -5 -304 -11z"/>
<path d="M2542 4254 c-12 -8 -22 -26 -22 -39 0 -54 8 -55 460 -55 360 0 419 2
438 16 27 18 29 55 4 77 -17 15 -62 17 -438 17 -364 0 -423 -2 -442 -16z"/>
<path d="M2537 3992 c-23 -26 -21 -58 5 -76 17 -12 50 -16 145 -16 110 0 125
2 143 20 11 11 20 27 20 35 0 8 -9 24 -20 35 -18 18 -33 20 -148 20 -112 0
-131 -2 -145 -18z"/>
<path d="M2957 3992 c-41 -46 -3 -92 76 -92 61 0 97 20 97 55 0 40 -25 55 -94
55 -48 0 -67 -4 -79 -18z"/>
<path d="M3241 3991 c-13 -13 -18 -27 -14 -43 10 -42 30 -48 153 -48 127 0
160 11 160 55 0 44 -33 55 -162 55 -103 0 -120 -2 -137 -19z"/>
<path d="M2536 3734 c-24 -23 -20 -61 8 -79 20 -14 83 -15 495 -13 455 3 473
4 487 22 19 27 18 42 -6 66 -19 19 -33 20 -494 20 -418 0 -476 -2 -490 -16z"/>
<path d="M2583 3482 c-66 -20 -87 -99 -38 -147 23 -24 30 -25 145 -25 121 0
122 0 151 29 46 46 37 106 -21 136 -30 15 -191 20 -237 7z"/>
<path d="M3282 3463 c3 -27 5 -28 73 -31 56 -2 72 0 82 14 23 31 -2 44 -84 44
l-74 0 3 -27z"/>
<path d="M3287 3354 c-4 -4 -7 -18 -7 -31 0 -22 3 -23 81 -23 l80 0 -3 28 c-3
26 -5 27 -73 30 -39 1 -74 0 -78 -4z"/>
<path d="M1632 4728 c-39 -39 17 -100 58 -63 34 31 20 75 -25 75 -12 0 -26 -5
-33 -12z"/>
<path d="M1788 4715 c-9 -21 -8 -28 7 -45 10 -11 26 -20 35 -20 9 0 25 9 35
20 27 30 7 70 -35 70 -23 0 -33 -6 -42 -25z"/>
<path d="M4162 4728 c-21 -21 -14 -57 14 -70 31 -14 57 -1 62 31 7 42 -46 69
-76 39z"/>
<path d="M4355 4606 c-30 -45 16 -91 61 -61 28 18 31 46 8 69 -22 23 -51 20
-69 -8z"/>
<path d="M1638 4569 c-36 -20 -13 -79 31 -79 13 0 41 29 41 43 -1 32 -43 53
-72 36z"/>
<path d="M4096 3994 c-32 -31 -9 -54 56 -54 36 0 50 4 58 19 7 15 6 23 -6 35
-20 21 -88 21 -108 0z"/>
<path d="M4288 4003 c-22 -6 -31 -32 -17 -49 14 -17 100 -19 117 -2 37 37 -29
70 -100 51z"/>
<path d="M4596 3965 c-3 -8 -12 -15 -21 -15 -30 0 -93 -39 -127 -80 -84 -97
-77 -220 17 -317 58 -60 109 -78 197 -70 165 15 264 183 194 333 -27 58 -84
109 -140 126 -21 7 -40 18 -43 25 -7 18 -69 17 -77 -2z m4 -249 l0 -155 -30
10 c-40 14 -88 71 -96 114 -8 46 2 97 26 128 17 22 73 56 93 57 4 0 7 -70 7
-154z m131 130 c104 -71 84 -231 -33 -275 l-28 -11 0 155 c0 172 0 172 61 131z"/>
<path d="M1193 3803 c-18 -7 -16 -62 2 -69 29 -11 65 5 65 29 0 38 -29 56 -67
40z"/>
<path d="M1502 3695 c-38 -17 -66 -71 -56 -110 3 -14 20 -37 37 -51 25 -21 38
-25 69 -21 47 6 67 22 85 65 19 46 -3 97 -51 117 -42 18 -42 18 -84 0z"/>
<path d="M1181 3628 c-16 -43 16 -70 63 -52 19 7 21 45 4 62 -20 20 -58 14
-67 -10z"/>
<path d="M1170 3413 c-79 -29 -91 -151 -19 -188 97 -51 193 40 147 140 -19 43
-80 65 -128 48z"/>
<path d="M1523 3388 c-15 -19 -26 -229 -13 -262 8 -22 15 -27 38 -24 l27 3 3
134 c3 133 -3 161 -33 161 -7 0 -17 -6 -22 -12z"/>
<path d="M4696 3327 c-25 -18 -20 -164 7 -181 12 -8 22 -8 35 0 25 16 30 154
7 178 -20 19 -26 20 -49 3z"/>
<path d="M4950 3305 c-21 -25 3 -67 37 -63 34 4 52 31 37 56 -15 23 -57 27
-74 7z"/>
<path d="M4385 3205 c-53 -52 -18 -135 57 -135 70 0 103 86 53 135 -15 16 -36
25 -55 25 -19 0 -40 -9 -55 -25z"/>
<path d="M4956 3144 c-20 -20 -20 -27 2 -54 23 -29 59 -20 68 17 11 43 -38 69
-70 37z"/>
<path d="M1076 3058 c-54 -11 -95 -44 -117 -92 -32 -70 -22 -135 29 -189 39
-41 74 -57 127 -57 153 0 235 166 139 280 -45 53 -107 73 -178 58z"/>
<path d="M1650 3011 c-48 -10 -89 -33 -127 -73 -54 -56 -63 -91 -63 -251 0
-150 5 -167 45 -167 40 0 45 18 45 152 0 175 22 220 121 250 38 11 39 13 39
55 0 46 0 46 -60 34z"/>
<path d="M4664 2981 c-65 -40 -67 -146 -4 -191 l30 -21 0 -349 0 -348 -25 -31
c-14 -16 -36 -33 -48 -36 -62 -18 -57 -25 -57 80 0 111 -9 135 -49 135 -37 0
-41 -12 -41 -126 0 -91 -1 -94 -22 -94 -13 0 -69 -3 -125 -6 l-103 -5 0 376 0
375 73 0 c91 0 130 -21 159 -87 18 -41 20 -61 16 -170 -4 -95 -2 -128 9 -143
18 -26 59 -26 73 -1 13 25 13 275 0 322 -15 55 -50 100 -104 137 -45 30 -53
32 -137 32 l-89 0 0 50 0 50 -1190 0 -1190 0 0 -325 0 -325 -40 0 c-34 0 -45
6 -82 47 -60 65 -124 93 -215 93 -126 0 -223 -63 -276 -179 -31 -66 -30 -179
2 -243 32 -68 116 -140 186 -163 96 -30 209 -5 287 64 30 26 44 31 86 31 l51
0 3 -377 3 -378 28 -48 c15 -26 47 -60 69 -75 l42 -27 1034 -3 1034 -2 48 26
c77 42 120 123 120 225 l0 47 88 4 c97 5 128 17 185 74 46 46 67 112 67 206 0
85 -11 108 -50 108 -34 0 -36 -6 -44 -123 -8 -133 -53 -177 -178 -177 l-68 0
0 250 0 251 123 -3 c133 -3 122 2 126 -60 1 -10 10 -22 22 -28 33 -18 69 11
69 55 0 33 2 35 33 35 46 0 115 38 151 83 l31 39 3 369 3 370 30 27 c24 21 32
38 36 72 10 103 -93 166 -183 111z m-755 -305 c24 -22 27 -64 7 -92 -14 -19
-36 -19 -882 -22 l-867 -2 -24 22 c-41 38 -24 97 32 111 11 3 401 4 866 3 818
-1 848 -2 868 -20z m-1453 -341 c25 -25 26 -29 22 -136 -4 -141 -2 -139 -152
-139 -118 0 -126 3 -145 37 -17 33 -14 204 4 230 19 26 35 30 153 32 87 1 95
-1 118 -24z m468 6 c13 -11 16 -36 16 -129 0 -154 2 -152 -147 -152 -152 0
-153 1 -153 148 0 71 4 114 13 125 20 27 241 33 271 8z m472 -5 c10 -14 14
-51 14 -132 0 -144 1 -144 -156 -144 -145 0 -143 -2 -145 148 -1 118 5 137 44
145 12 3 68 4 125 4 90 -2 106 -5 118 -21z m465 -5 c16 -19 19 -40 19 -127 0
-142 -2 -144 -154 -144 -112 0 -115 1 -135 26 -18 23 -21 41 -21 121 0 145 10
154 168 150 96 -2 105 -4 123 -26z m-2406 -111 l39 -40 42 41 c30 29 48 40 65
37 41 -5 37 -44 -10 -92 l-41 -42 40 -39 c48 -47 53 -81 14 -91 -22 -6 -33 0
-66 35 -42 44 -49 44 -86 -1 -28 -33 -58 -44 -77 -28 -24 20 -17 44 25 85 l39
38 -39 43 c-79 86 -26 137 55 54z m1009 -402 c12 -17 16 -48 16 -123 0 -146 1
-145 -155 -145 l-124 0 -16 30 c-21 41 -21 207 1 238 14 21 22 22 139 22 117
0 125 -1 139 -22z m464 10 c8 -8 12 -51 12 -129 0 -153 4 -149 -147 -149 -155
0 -153 -2 -153 142 0 60 5 118 10 129 10 17 22 19 138 19 86 0 132 -4 140 -12z
m472 -7 c5 -11 10 -68 10 -127 0 -146 2 -144 -151 -144 -153 0 -149 -4 -149
149 0 78 4 121 12 129 8 8 54 12 140 12 116 0 128 -2 138 -19z m464 -3 c12
-17 16 -48 16 -123 0 -145 0 -145 -149 -145 -157 0 -155 -2 -159 135 -5 155
-6 155 153 155 117 0 125 -1 139 -22z m-854 -473 c50 -26 52 -90 5 -121 -47
-31 -105 3 -105 60 0 37 24 64 68 75 2 1 16 -6 32 -14z m433 -17 c20 -24 22
-67 5 -91 -7 -9 -27 -20 -45 -23 -57 -11 -101 54 -72 107 22 42 79 45 112 7z
m442 -1 c47 -68 -28 -148 -93 -100 -31 23 -41 75 -21 100 30 36 89 35 114 0z"/>
<path d="M1402 1671 c-8 -4 -12 -19 -10 -32 3 -23 7 -24 84 -27 91 -3 115 9
94 47 -9 18 -20 21 -83 21 -40 0 -78 -4 -85 -9z"/>
<path d="M1638 1529 c-47 -27 -1 -93 48 -70 30 13 33 56 5 71 -24 12 -31 12
-53 -1z"/>
<path d="M1484 1370 c-12 -4 -31 -21 -44 -37 -42 -54 -12 -132 58 -150 36 -9
93 24 107 62 30 75 -48 156 -121 125z"/>
</g>
</svg>
